<svg width="182" height="32" viewBox="0 0 182 32" fill="none" xmlns="http://www.w3.org/2000/svg">
<path d="M146.583 25.99V22.264L155.362 10.06H160.669V21.994H162.947V25.99H160.669V29.5H155.918V25.99H146.583ZM156.251 15.136L151.584 21.994H156.251V15.136Z" fill="#634DEB"/>
<path d="M88.6387 10.546V29.5H83.8877V18.133L79.5257 29.5H75.6916L71.3018 18.106V29.5H66.5508V10.546H72.1631L77.6364 23.668L83.0542 10.546H88.6387Z" fill="white"/>
<path d="M104.197 26.152H96.9173L95.7504 29.5H90.7771L97.8342 10.546H103.335L110.392 29.5H105.363L104.197 26.152ZM102.974 22.588L100.557 15.649L98.1676 22.588H102.974Z" fill="white"/>
<path d="M123.848 29.5L117.291 21.13V29.5H112.54V10.546H117.291V18.862L123.792 10.546H129.377L121.82 19.834L129.655 29.5H123.848Z" fill="white"/>
<path d="M136.664 14.245V18.079H143.026V21.643H136.664V25.801H143.86V29.5H131.913V10.546H143.86V14.245H136.664Z" fill="white"/>
<path d="M170.414 10.546V21.886C170.414 23.02 170.701 23.893 171.276 24.505C171.85 25.117 172.693 25.423 173.804 25.423C174.915 25.423 175.767 25.117 176.36 24.505C176.953 23.893 177.249 23.02 177.249 21.886V10.546H182V21.859C182 23.551 181.63 24.982 180.889 26.152C180.148 27.322 179.148 28.204 177.888 28.798C176.647 29.392 175.258 29.689 173.72 29.689C172.183 29.689 170.803 29.401 169.581 28.825C168.377 28.231 167.423 27.349 166.719 26.179C166.015 24.991 165.663 23.551 165.663 21.859V10.546H170.414Z" fill="white"/>
<mask id="mask0" mask-type="alpha" maskUnits="userSpaceOnUse" x="0" y="0" width="50" height="32">
<path d="M32.9286 32V0L0 32H32.9286Z" fill="#634DEB"/>
<path d="M49.3929 32V0L16.4643 32H49.3929Z" fill="#634DEB"/>
</mask>
<g mask="url(#mask0)">
<path fill-rule="evenodd" clip-rule="evenodd" d="M49.3929 5H0V32L16.4643 32L32.9286 16V32L49.3929 32V5Z" fill="#634DEB"/>
</g>
</svg>
